<?xml version="1.0" standalone="no"?>
<!DOCTYPE svg PUBLIC "-//W3C//DTD SVG 20010904//EN"
 "http://www.w3.org/TR/2001/REC-SVG-20010904/DTD/svg10.dtd">
<svg version="1.0" xmlns="http://www.w3.org/2000/svg"
 width="256.000000pt" height="256.000000pt" viewBox="0 0 256.000000 256.000000"
 preserveAspectRatio="xMidYMid meet">

<defs>
<linearGradient id="ldBlueGrad" x1="0%" y1="0%" x2="0%" y2="100%">
  <stop offset="0%" stop-color="#5fc4ff"/>
  <stop offset="40%" stop-color="#1e90ff"/>
  <stop offset="75%" stop-color="#0066ee"/>
  <stop offset="100%" stop-color="#003388"/>
</linearGradient>
</defs>

<g transform="translate(0.000000,256.000000) scale(0.100000,-0.100000)"
fill="url(#ldBlueGrad)" stroke="none">
<path d="M901 2178 c27 -55 38 -68 57 -68 23 0 23 0 -9 45 -17 24 -43 54 -56
67 -24 22 -23 19 8 -44z"/>
<path d="M1140 2046 c0 -3 9 -10 20 -16 11 -6 20 -8 20 -6 0 3 -9 10 -20 16
-11 6 -20 8 -20 6z"/>
<path d="M1116 2022 c-2 -4 -1 -14 5 -22 7 -12 9 -12 9 -1 0 7 6 11 15 7 22
-8 18 1 -4 14 -11 5 -22 6 -25 2z"/>
<path d="M1208 1991 c4 -11 -1 -13 -19 -8 -28 7 -43 0 -53 -28 -7 -19 -8 -19
-20 3 -7 12 -15 20 -18 17 -10 -10 -158 -11 -158 -1 0 5 -2 7 -5 4 -3 -3 -1
-18 5 -34 9 -25 8 -27 -3 -12 -16 21 -1 55 -188 -437 -27 -71 -54 -139 -59
-150 -8 -17 -40 -101 -142 -373 -11 -30 -24 -50 -30 -46 -6 4 -8 -2 -3 -16 5
-16 4 -20 -5 -15 -7 4 -11 1 -9 -6 4 -31 -1 -43 -12 -32 -8 8 -5 27 10 68 12
32 20 59 18 61 -8 8 -78 -197 -71 -208 4 -6 3 -8 -4 -4 -14 8 -35 -55 -26 -80
4 -13 3 -15 -4 -6 -6 9 -18 -12 -42 -75 -18 -48 -37 -99 -43 -113 -6 -14 -9
-29 -8 -33 1 -5 -2 -6 -7 -3 -12 7 -54 -38 -45 -49 5 -4 3 -5 -3 -2 -6 4 -20
-3 -30 -15 -14 -15 -15 -20 -4 -16 8 3 109 45 225 93 374 155 865 347 865 338
0 -3 -18 -40 -41 -82 l-41 -76 37 40 36 40 -39 -74 c-21 -41 -45 -77 -52 -79
-9 -3 -11 1 -6 14 5 15 3 15 -11 -3 -28 -36 -67 -113 -60 -119 9 -10 543 53
611 71 322 85 553 308 621 597 11 49 11 57 0 48 -11 -9 -14 3 -18 67 -3 43 -7
87 -9 98 -20 96 -99 206 -169 237 -15 7 -25 16 -23 20 3 4 -3 5 -12 1 -12 -4
-15 -3 -10 5 5 8 2 10 -8 6 -9 -3 -16 -2 -16 4 0 33 -216 50 -561 44 -234 -4
-269 -3 -300 12 -26 13 -16 0 49 -63 46 -44 91 -81 99 -83 10 -2 4 -17 -24
-55 -21 -29 -72 -100 -113 -159 -41 -59 -85 -113 -98 -122 -12 -8 -21 -17 -18
-19 2 -2 92 55 201 127 l197 130 173 0 c189 0 223 -7 273 -53 39 -38 56 -94
49 -165 -6 -60 0 -92 14 -70 7 10 9 9 9 -5 0 -57 -94 -195 -183 -267 -64 -52
-199 -124 -252 -135 -25 -5 -22 -3 13 14 58 28 53 34 -7 8 -28 -11 -48 -23
-46 -26 1 -3 -7 -6 -18 -7 -12 0 -35 -4 -51 -9 l-30 -8 26 44 c75 129 258 472
254 476 -2 2 -7 -4 -10 -15 -7 -20 -7 -20 -461 -175 -362 -123 -419 -140 -385
-116 12 9 12 10 -3 5 -11 -3 -30 -9 -44 -12 -32 -8 -46 -54 149 471 88 237
174 471 193 520 30 81 31 91 15 91 -11 0 -16 -5 -12 -15z m-281 -103 c-3 -8
-6 -5 -6 6 -1 11 2 17 5 13 3 -3 4 -12 1 -19z m-54 -123 c-3 -9 -8 -14 -10
-11 -3 3 -2 9 2 15 9 16 15 13 8 -4z m-401 -937 c-8 -8 -9 -4 -5 13 4 13 8 18
11 10 2 -7 -1 -18 -6 -23z m1 -43 c-3 -9 -8 -14 -10 -11 -3 3 -2 9 2 15 9 16
15 13 8 -4z m737 -226 c0 -11 -4 -17 -10 -14 -5 3 -10 1 -10 -6 0 -7 -3 -10
-6 -7 -6 6 13 48 21 48 3 0 5 -9 5 -21z m-850 -73 c0 -2 -7 -7 -16 -10 -8 -3
-12 -2 -9 4 6 10 25 14 25 6z"/>
</g>
</svg>
